# xmcd CD database file
#
# Track frame offsets:
#	182
#	17622
#	33977
#	49180
#	64345
#	75910
#	86390
#	97675
#	106350
#	122565
#	136967
#	151070
#	162057
#	173415
#	194082
#	206085
#	214550
#
# Disc length: 3045 seconds
#
# Revision: 1
# Processed by: cddbd v1.4PL0 Copyright (c) Steve Scherf et al.
# Submitted via: Feurio! 1.66 - http://www.feurio.com
#
DISCID=cc0be311
DTITLE=Billie Joe Spears - Country Queen
DYEAR=1900
DGENRE=
TTITLE0=For The Good Times
TTITLE1=Fire And Rain
TTITLE2=Crystal Chandeliers
TTITLE3=It's A Heartache
TTITLE4=Silver Threads And Golden Needles
TTITLE5=I'm Gonna Be A Country Girl Again
TTITLE6=Here You Come Again
TTITLE7=Blue Blue Day
TTITLE8=Queen Of The Silver Dollar
TTITLE9=Cryin' Time
TTITLE10=I'll Never Love Like This Again
TTITLE11=All I Have To Do Is Dream
TTITLE12=Tennessee Waltz
TTITLE13=Just The Way You Are
TTITLE14=This Ole House
TTITLE15=Rocky Top
TTITLE16=Blue Bayou
EXTD=
EXTT0=
EXTT1=
EXTT2=
EXTT3=
EXTT4=
EXTT5=
EXTT6=
EXTT7=
EXTT8=
EXTT9=
EXTT10=
EXTT11=
EXTT12=
EXTT13=
EXTT14=
EXTT15=
EXTT16=
PLAYORDER=
